# xmcd
#
# Track frame offsets: 
#        150
#        16717
#        38245
#
# Disc length: 725 seconds
#
# Revision: 3
# Processed by: cddbd v1.5.2PL0 Copyright (c) Steve Scherf et al.
# Submitted via: ExactAudioCopy v0.95b4
#
DISCID=1602d303
DTITLE=Q.F.X - Say You'll Be Mine
DYEAR=1999
DGENRE=Dance
TTITLE0=Say You'll Be Mine (Radio Edit)
TTITLE1=Say You'll Be Mine (Happy Hardcore Mix)
TTITLE2=Say You'll Be Mine (QFX Mix)
EXTD=YEAR: 1999
EXTT0=
EXTT1=
EXTT2=
PLAYORDER=
